# xmcd
#
# Track frame offsets:
#	150
#	12979
#	24446
#	37106
#	49639
#	62554
#	74708
#	86399
#	98758
#	110603
#	123081
#	135415
#	146894
#	159927
#	172340
#	183999
#	195590
#	207048
#	216883
#	227635
#	239206
#	250658
#	260273
#	273158
#	285724
#
# Disc length: 3983 seconds
#
# Revision: 1
# Processed by: cddbd v1.5.1PL2 Copyright (c) Steve Scherf et al.
# Submitted via: EasyCDDAExtractor 9.0.0.1
#
DISCID=6a0f8d19
DTITLE=Various Artist - Boogie Uproar, Texas Blues and R&B (1947-54) - Disc B
DYEAR=2006
DGENRE=Blues
TTITLE0=Clarence 'Gatemouth' Brown - Dirty Work At The Crossroad
TTITLE1=Clarence 'Gatemouth' Brown - You Got Money
TTITLE2=Clarence 'Gatemouth' Brown - September Song
TTITLE3=Clarence 'Gatemouth' Brown - Boogie Uproar
TTITLE4=Clarence 'Gatemouth' Brown - Please Tell Me Baby
TTITLE5=Clarence 'Gatemouth' Brown - Hurry Back Good News
TTITLE6=Clarence 'Gatemouth' Brown - Gate Walks To Board
TTITLE7=Clarence 'Gatemouth' Brown - Midnight Hour
TTITLE8=Clarence 'Gatemouth' Brown - Good Looking Woman
TTITLE9=Clarence 'Gatemouth' Brown - For Now, So Long
TTITLE10=Clarence 'Gatemouth' Brown - That's Your Daddy Yaddy Yo
TTITLE11=Clarence 'Gatemouth' Brown - Okie Dokie Stomp
TTITLE12=Clarence 'Gatemouth' Brown - Depression Blues
TTITLE13=Zuzu Bollin - Why Don't You Eat Where You Slept Last Night
TTITLE14=Zuzu Bollin - Headlight Blues
TTITLE15=Zuzu Bollin - Cry, Cry, Cry
TTITLE16=Zuzu Bollin - Stavin' Chain
TTITLE17=James 'Wide Mouth' Brown - A Weary Silent Night
TTITLE18=James 'Wide Mouth' Brown - Boogie Woogie Nighthawk
TTITLE19=Nelson Carson - My Baby Left Me
TTITLE20=Nelson Carson - Lost
TTITLE21=Nelson Carson - Crazy About My Baby
TTITLE22=Nelson Carson - Waiting For Love
TTITLE23=R.B. Thibadeaux - R.B. Boogie
TTITLE24=R.B. Thibadeaux - New Kind Of Loving
EXTD=
EXTT0=
EXTT1=
EXTT2=
EXTT3=
EXTT4=
EXTT5=
EXTT6=
EXTT7=
EXTT8=
EXTT9=
EXTT10=
EXTT11=
EXTT12=
EXTT13=
EXTT14=
EXTT15=
EXTT16=
EXTT17=
EXTT18=
EXTT19=
EXTT20=
EXTT21=
EXTT22=
EXTT23=
EXTT24=
PLAYORDER=
